<mxfile host="app.diagrams.net" agent="Mozilla/5.0 (Windows NT 10.0; Win64; x64; rv:133.0) Gecko/20100101 Firefox/133.0" version="25.0.1">
  <diagram name="Page-1" id="1pWacO_ry8iib0TnXtKL">
    <mxGraphModel dx="1436" dy="735" grid="1" gridSize="10" guides="1" tooltips="1" connect="1" arrows="1" fold="1" page="1" pageScale="1" pageWidth="520" pageHeight="740" math="0" shadow="0">
      <root>
        <mxCell id="0" />
        <mxCell id="1" parent="0" />
        <mxCell id="lrwqIU0S0etcU-j60iW2-27" style="edgeStyle=orthogonalEdgeStyle;rounded=0;orthogonalLoop=1;jettySize=auto;html=1;exitX=0.5;exitY=1;exitDx=0;exitDy=0;exitPerimeter=0;entryX=0.5;entryY=0;entryDx=0;entryDy=0;" edge="1" parent="1" source="lrwqIU0S0etcU-j60iW2-4" target="lrwqIU0S0etcU-j60iW2-25">
          <mxGeometry relative="1" as="geometry" />
        </mxCell>
        <mxCell id="lrwqIU0S0etcU-j60iW2-4" value="&lt;div&gt;Game starts&lt;/div&gt;" style="strokeWidth=2;html=1;shape=mxgraph.flowchart.start_2;whiteSpace=wrap;" vertex="1" parent="1">
          <mxGeometry x="200" y="40" width="120" height="40" as="geometry" />
        </mxCell>
        <mxCell id="lrwqIU0S0etcU-j60iW2-15" style="edgeStyle=orthogonalEdgeStyle;rounded=0;orthogonalLoop=1;jettySize=auto;html=1;exitX=0.5;exitY=1;exitDx=0;exitDy=0;entryX=0.5;entryY=0;entryDx=0;entryDy=0;" edge="1" parent="1" source="lrwqIU0S0etcU-j60iW2-6" target="lrwqIU0S0etcU-j60iW2-7">
          <mxGeometry relative="1" as="geometry" />
        </mxCell>
        <mxCell id="lrwqIU0S0etcU-j60iW2-6" value="&lt;div&gt;Class-dismissing&lt;br&gt;&lt;/div&gt;&lt;div&gt;bell rings&lt;/div&gt;" style="rounded=0;whiteSpace=wrap;html=1;" vertex="1" parent="1">
          <mxGeometry x="200" y="160" width="120" height="40" as="geometry" />
        </mxCell>
        <mxCell id="lrwqIU0S0etcU-j60iW2-16" style="edgeStyle=orthogonalEdgeStyle;rounded=0;orthogonalLoop=1;jettySize=auto;html=1;exitX=0.5;exitY=1;exitDx=0;exitDy=0;entryX=0.5;entryY=0;entryDx=0;entryDy=0;" edge="1" parent="1" source="lrwqIU0S0etcU-j60iW2-7" target="lrwqIU0S0etcU-j60iW2-10">
          <mxGeometry relative="1" as="geometry" />
        </mxCell>
        <mxCell id="lrwqIU0S0etcU-j60iW2-7" value="&lt;div&gt;Notification pops up&lt;/div&gt;" style="rounded=0;whiteSpace=wrap;html=1;" vertex="1" parent="1">
          <mxGeometry x="200" y="220" width="120" height="40" as="geometry" />
        </mxCell>
        <mxCell id="lrwqIU0S0etcU-j60iW2-37" style="edgeStyle=orthogonalEdgeStyle;rounded=0;orthogonalLoop=1;jettySize=auto;html=1;exitX=0.5;exitY=1;exitDx=0;exitDy=0;entryX=0.5;entryY=0;entryDx=0;entryDy=0;" edge="1" parent="1" source="lrwqIU0S0etcU-j60iW2-9" target="lrwqIU0S0etcU-j60iW2-36">
          <mxGeometry relative="1" as="geometry" />
        </mxCell>
        <mxCell id="lrwqIU0S0etcU-j60iW2-9" value="&lt;div&gt;Player finds their&lt;/div&gt;&lt;div&gt;way to 404&lt;br&gt;&lt;/div&gt;" style="rounded=0;whiteSpace=wrap;html=1;" vertex="1" parent="1">
          <mxGeometry x="200" y="340" width="120" height="40" as="geometry" />
        </mxCell>
        <mxCell id="lrwqIU0S0etcU-j60iW2-17" style="edgeStyle=orthogonalEdgeStyle;rounded=0;orthogonalLoop=1;jettySize=auto;html=1;exitX=0.5;exitY=1;exitDx=0;exitDy=0;entryX=0.5;entryY=0;entryDx=0;entryDy=0;" edge="1" parent="1" source="lrwqIU0S0etcU-j60iW2-10" target="lrwqIU0S0etcU-j60iW2-9">
          <mxGeometry relative="1" as="geometry" />
        </mxCell>
        <mxCell id="lrwqIU0S0etcU-j60iW2-10" value="Timer starts" style="rounded=0;whiteSpace=wrap;html=1;" vertex="1" parent="1">
          <mxGeometry x="200" y="280" width="120" height="40" as="geometry" />
        </mxCell>
        <mxCell id="lrwqIU0S0etcU-j60iW2-30" style="edgeStyle=orthogonalEdgeStyle;rounded=0;orthogonalLoop=1;jettySize=auto;html=1;exitX=0.5;exitY=0;exitDx=0;exitDy=0;entryX=0.5;entryY=1;entryDx=0;entryDy=0;" edge="1" parent="1" source="lrwqIU0S0etcU-j60iW2-34" target="lrwqIU0S0etcU-j60iW2-29">
          <mxGeometry relative="1" as="geometry">
            <mxPoint x="420" y="240" as="sourcePoint" />
          </mxGeometry>
        </mxCell>
        <mxCell id="lrwqIU0S0etcU-j60iW2-47" style="edgeStyle=orthogonalEdgeStyle;rounded=0;orthogonalLoop=1;jettySize=auto;html=1;exitX=0.5;exitY=0;exitDx=0;exitDy=0;entryX=0;entryY=0.5;entryDx=0;entryDy=0;" edge="1" parent="1" source="lrwqIU0S0etcU-j60iW2-12" target="lrwqIU0S0etcU-j60iW2-25">
          <mxGeometry relative="1" as="geometry" />
        </mxCell>
        <mxCell id="lrwqIU0S0etcU-j60iW2-12" value="Advance to&lt;br&gt;the next level" style="rounded=0;whiteSpace=wrap;html=1;" vertex="1" parent="1">
          <mxGeometry x="40" y="340" width="120" height="40" as="geometry" />
        </mxCell>
        <mxCell id="lrwqIU0S0etcU-j60iW2-48" style="edgeStyle=orthogonalEdgeStyle;rounded=0;orthogonalLoop=1;jettySize=auto;html=1;exitX=0.5;exitY=0;exitDx=0;exitDy=0;entryX=1;entryY=0.5;entryDx=0;entryDy=0;" edge="1" parent="1" source="lrwqIU0S0etcU-j60iW2-14" target="lrwqIU0S0etcU-j60iW2-25">
          <mxGeometry relative="1" as="geometry" />
        </mxCell>
        <mxCell id="lrwqIU0S0etcU-j60iW2-14" value="&lt;div&gt;Reset the scene&lt;br&gt;&lt;/div&gt;" style="rounded=0;whiteSpace=wrap;html=1;" vertex="1" parent="1">
          <mxGeometry x="360" y="190" width="120" height="40" as="geometry" />
        </mxCell>
        <mxCell id="lrwqIU0S0etcU-j60iW2-28" style="edgeStyle=orthogonalEdgeStyle;rounded=0;orthogonalLoop=1;jettySize=auto;html=1;exitX=0.5;exitY=1;exitDx=0;exitDy=0;entryX=0.5;entryY=0;entryDx=0;entryDy=0;" edge="1" parent="1" source="lrwqIU0S0etcU-j60iW2-25" target="lrwqIU0S0etcU-j60iW2-6">
          <mxGeometry relative="1" as="geometry" />
        </mxCell>
        <mxCell id="lrwqIU0S0etcU-j60iW2-25" value="Level starts" style="rounded=1;whiteSpace=wrap;html=1;" vertex="1" parent="1">
          <mxGeometry x="200" y="100" width="120" height="40" as="geometry" />
        </mxCell>
        <mxCell id="lrwqIU0S0etcU-j60iW2-31" style="edgeStyle=orthogonalEdgeStyle;rounded=0;orthogonalLoop=1;jettySize=auto;html=1;exitX=0.5;exitY=0;exitDx=0;exitDy=0;entryX=0.5;entryY=1;entryDx=0;entryDy=0;" edge="1" parent="1" source="lrwqIU0S0etcU-j60iW2-29" target="lrwqIU0S0etcU-j60iW2-14">
          <mxGeometry relative="1" as="geometry" />
        </mxCell>
        <mxCell id="lrwqIU0S0etcU-j60iW2-29" value="Level failed" style="rounded=1;whiteSpace=wrap;html=1;" vertex="1" parent="1">
          <mxGeometry x="360" y="250" width="120" height="40" as="geometry" />
        </mxCell>
        <mxCell id="lrwqIU0S0etcU-j60iW2-42" style="edgeStyle=orthogonalEdgeStyle;rounded=0;orthogonalLoop=1;jettySize=auto;html=1;exitX=0.5;exitY=1;exitDx=0;exitDy=0;entryX=0.5;entryY=0;entryDx=0;entryDy=0;" edge="1" parent="1" source="lrwqIU0S0etcU-j60iW2-32" target="lrwqIU0S0etcU-j60iW2-41">
          <mxGeometry relative="1" as="geometry" />
        </mxCell>
        <mxCell id="lrwqIU0S0etcU-j60iW2-32" value="Level passes" style="rounded=1;whiteSpace=wrap;html=1;" vertex="1" parent="1">
          <mxGeometry x="200" y="500" width="120" height="40" as="geometry" />
        </mxCell>
        <mxCell id="lrwqIU0S0etcU-j60iW2-34" value="Roll dying animation" style="rounded=0;whiteSpace=wrap;html=1;" vertex="1" parent="1">
          <mxGeometry x="360" y="310" width="120" height="40" as="geometry" />
        </mxCell>
        <mxCell id="lrwqIU0S0etcU-j60iW2-38" style="edgeStyle=orthogonalEdgeStyle;rounded=0;orthogonalLoop=1;jettySize=auto;html=1;exitX=0.5;exitY=1;exitDx=0;exitDy=0;entryX=0.5;entryY=0;entryDx=0;entryDy=0;" edge="1" parent="1" source="lrwqIU0S0etcU-j60iW2-36" target="lrwqIU0S0etcU-j60iW2-32">
          <mxGeometry relative="1" as="geometry" />
        </mxCell>
        <mxCell id="lrwqIU0S0etcU-j60iW2-40" value="Yes" style="edgeLabel;html=1;align=center;verticalAlign=middle;resizable=0;points=[];" vertex="1" connectable="0" parent="lrwqIU0S0etcU-j60iW2-38">
          <mxGeometry x="-0.2333" relative="1" as="geometry">
            <mxPoint as="offset" />
          </mxGeometry>
        </mxCell>
        <mxCell id="lrwqIU0S0etcU-j60iW2-39" value="No" style="edgeStyle=orthogonalEdgeStyle;rounded=0;orthogonalLoop=1;jettySize=auto;html=1;exitX=1;exitY=0.5;exitDx=0;exitDy=0;" edge="1" parent="1" source="lrwqIU0S0etcU-j60iW2-36" target="lrwqIU0S0etcU-j60iW2-34">
          <mxGeometry x="-0.5" relative="1" as="geometry">
            <mxPoint as="offset" />
          </mxGeometry>
        </mxCell>
        <mxCell id="lrwqIU0S0etcU-j60iW2-36" value="&lt;div&gt;Player enters&lt;/div&gt;&lt;div&gt;404 on time&lt;/div&gt;" style="rhombus;whiteSpace=wrap;html=1;" vertex="1" parent="1">
          <mxGeometry x="180" y="400" width="160" height="60" as="geometry" />
        </mxCell>
        <mxCell id="lrwqIU0S0etcU-j60iW2-44" style="edgeStyle=orthogonalEdgeStyle;rounded=0;orthogonalLoop=1;jettySize=auto;html=1;exitX=0.5;exitY=1;exitDx=0;exitDy=0;entryX=0.5;entryY=0;entryDx=0;entryDy=0;" edge="1" parent="1" source="lrwqIU0S0etcU-j60iW2-41" target="lrwqIU0S0etcU-j60iW2-43">
          <mxGeometry relative="1" as="geometry" />
        </mxCell>
        <mxCell id="lrwqIU0S0etcU-j60iW2-45" value="Yes" style="edgeLabel;html=1;align=center;verticalAlign=middle;resizable=0;points=[];" vertex="1" connectable="0" parent="lrwqIU0S0etcU-j60iW2-44">
          <mxGeometry x="-0.15" y="2" relative="1" as="geometry">
            <mxPoint as="offset" />
          </mxGeometry>
        </mxCell>
        <mxCell id="lrwqIU0S0etcU-j60iW2-46" value="No" style="edgeStyle=orthogonalEdgeStyle;rounded=0;orthogonalLoop=1;jettySize=auto;html=1;exitX=0;exitY=0.5;exitDx=0;exitDy=0;entryX=0.5;entryY=1;entryDx=0;entryDy=0;" edge="1" parent="1" source="lrwqIU0S0etcU-j60iW2-41" target="lrwqIU0S0etcU-j60iW2-12">
          <mxGeometry x="-0.7241" relative="1" as="geometry">
            <mxPoint as="offset" />
          </mxGeometry>
        </mxCell>
        <mxCell id="lrwqIU0S0etcU-j60iW2-41" value="Is last level" style="rhombus;whiteSpace=wrap;html=1;" vertex="1" parent="1">
          <mxGeometry x="180" y="560" width="160" height="60" as="geometry" />
        </mxCell>
        <mxCell id="lrwqIU0S0etcU-j60iW2-43" value="Level failed" style="rounded=1;whiteSpace=wrap;html=1;" vertex="1" parent="1">
          <mxGeometry x="200" y="660" width="120" height="40" as="geometry" />
        </mxCell>
      </root>
    </mxGraphModel>
  </diagram>
</mxfile>
